<svg xmlns="http://www.w3.org/2000/svg" xmlns:xlink="http://www.w3.org/1999/xlink" width="467" zoomAndPan="magnify" viewBox="0 0 350.25 124.499996" height="166" preserveAspectRatio="xMidYMid meet" version="1.0"><defs><g/><clipPath id="aa9056f287"><path d="M 7 25 L 39 25 L 39 56 L 7 56 Z M 7 25 " clip-rule="nonzero"/></clipPath><clipPath id="befa517a1e"><path d="M 6.0625 52.613281 L 21.386719 18.550781 L 41.824219 27.746094 L 26.5 61.808594 Z M 6.0625 52.613281 " clip-rule="nonzero"/></clipPath><clipPath id="aaf8e708c6"><path d="M 6.0625 52.613281 L 21.386719 18.550781 L 41.824219 27.746094 L 26.5 61.808594 Z M 6.0625 52.613281 " clip-rule="nonzero"/></clipPath></defs><g fill="#000000" fill-opacity="1"><g transform="translate(24.057441, 79.425507)"><g><path d="M 37.234375 -14.921875 L 13.3125 -14.921875 C 13.3125 -12.609375 14.0625 -10.894531 15.5625 -9.78125 C 17.0625 -8.664062 18.691406 -8.109375 20.453125 -8.109375 C 22.296875 -8.109375 23.753906 -8.351562 24.828125 -8.84375 C 25.898438 -9.332031 27.117188 -10.304688 28.484375 -11.765625 L 36.71875 -7.65625 C 33.289062 -1.90625 27.585938 0.96875 19.609375 0.96875 C 14.640625 0.96875 10.375 -0.734375 6.8125 -4.140625 C 3.257812 -7.554688 1.484375 -11.664062 1.484375 -16.46875 C 1.484375 -21.269531 3.257812 -25.382812 6.8125 -28.8125 C 10.375 -32.238281 14.640625 -33.953125 19.609375 -33.953125 C 24.847656 -33.953125 29.101562 -32.441406 32.375 -29.421875 C 35.65625 -26.398438 37.296875 -22.082031 37.296875 -16.46875 C 37.296875 -15.695312 37.273438 -15.179688 37.234375 -14.921875 Z M 13.640625 -21.21875 L 26.171875 -21.21875 C 25.921875 -22.9375 25.25 -24.253906 24.15625 -25.171875 C 23.0625 -26.097656 21.65625 -26.5625 19.9375 -26.5625 C 18.050781 -26.5625 16.550781 -26.066406 15.4375 -25.078125 C 14.320312 -24.097656 13.722656 -22.8125 13.640625 -21.21875 Z M 13.640625 -21.21875 "/></g></g></g><g fill="#000000" fill-opacity="1"><g transform="translate(57.359599, 79.425507)"><g><path d="M 12.21875 -33 L 20.265625 -15.046875 L 28.296875 -33 L 41.796875 -33 L 24.109375 0 L 16.40625 0 L -1.28125 -33 Z M 12.21875 -33 "/></g></g></g><g fill="#000000" fill-opacity="1"><g transform="translate(92.397651, 79.425507)"><g><path d="M 37.234375 -14.921875 L 13.3125 -14.921875 C 13.3125 -12.609375 14.0625 -10.894531 15.5625 -9.78125 C 17.0625 -8.664062 18.691406 -8.109375 20.453125 -8.109375 C 22.296875 -8.109375 23.753906 -8.351562 24.828125 -8.84375 C 25.898438 -9.332031 27.117188 -10.304688 28.484375 -11.765625 L 36.71875 -7.65625 C 33.289062 -1.90625 27.585938 0.96875 19.609375 0.96875 C 14.640625 0.96875 10.375 -0.734375 6.8125 -4.140625 C 3.257812 -7.554688 1.484375 -11.664062 1.484375 -16.46875 C 1.484375 -21.269531 3.257812 -25.382812 6.8125 -28.8125 C 10.375 -32.238281 14.640625 -33.953125 19.609375 -33.953125 C 24.847656 -33.953125 29.101562 -32.441406 32.375 -29.421875 C 35.65625 -26.398438 37.296875 -22.082031 37.296875 -16.46875 C 37.296875 -15.695312 37.273438 -15.179688 37.234375 -14.921875 Z M 13.640625 -21.21875 L 26.171875 -21.21875 C 25.921875 -22.9375 25.25 -24.253906 24.15625 -25.171875 C 23.0625 -26.097656 21.65625 -26.5625 19.9375 -26.5625 C 18.050781 -26.5625 16.550781 -26.066406 15.4375 -25.078125 C 14.320312 -24.097656 13.722656 -22.8125 13.640625 -21.21875 Z M 13.640625 -21.21875 "/></g></g></g><g fill="#000000" fill-opacity="1"><g transform="translate(125.699809, 79.425507)"><g><path d="M 3.859375 0 L 3.859375 -33 L 15.234375 -33 L 15.234375 -29.515625 L 15.375 -29.515625 C 18.332031 -32.472656 21.484375 -33.953125 24.828125 -33.953125 C 26.453125 -33.953125 28.066406 -33.738281 29.671875 -33.3125 C 31.285156 -32.882812 32.832031 -32.21875 34.3125 -31.3125 C 35.789062 -30.414062 36.988281 -29.140625 37.90625 -27.484375 C 38.832031 -25.835938 39.296875 -23.921875 39.296875 -21.734375 L 39.296875 0 L 27.90625 0 L 27.90625 -18.65625 C 27.90625 -20.363281 27.359375 -21.859375 26.265625 -23.140625 C 25.171875 -24.429688 23.75 -25.078125 22 -25.078125 C 20.28125 -25.078125 18.722656 -24.410156 17.328125 -23.078125 C 15.929688 -21.753906 15.234375 -20.28125 15.234375 -18.65625 L 15.234375 0 Z M 3.859375 0 "/></g></g></g><g fill="#000000" fill-opacity="1"><g transform="translate(162.730932, 79.425507)"><g><path d="M 5.78125 -33 L 5.78125 -45.28125 L 17.171875 -45.28125 L 17.171875 -33 L 24.109375 -33 L 24.109375 -24.3125 L 17.171875 -24.3125 L 17.171875 -13.828125 C 17.171875 -10.785156 18.03125 -9.265625 19.75 -9.265625 C 20.175781 -9.265625 20.625 -9.347656 21.09375 -9.515625 C 21.5625 -9.691406 21.925781 -9.863281 22.1875 -10.03125 L 22.578125 -10.296875 L 25.40625 -1.09375 C 22.957031 0.28125 20.171875 0.96875 17.046875 0.96875 C 14.898438 0.96875 13.054688 0.59375 11.515625 -0.15625 C 9.972656 -0.90625 8.800781 -1.910156 8 -3.171875 C 7.207031 -4.441406 6.640625 -5.773438 6.296875 -7.171875 C 5.953125 -8.566406 5.78125 -10.054688 5.78125 -11.640625 L 5.78125 -24.3125 L 1.03125 -24.3125 L 1.03125 -33 Z M 5.78125 -33 "/></g></g></g><g fill="#000000" fill-opacity="1"><g transform="translate(182.660203, 79.425507)"><g><path d="M 3.859375 0 L 3.859375 -55.3125 L 15.234375 -55.3125 L 15.234375 -29.515625 L 15.375 -29.515625 C 18.332031 -32.472656 21.484375 -33.953125 24.828125 -33.953125 C 26.453125 -33.953125 28.066406 -33.738281 29.671875 -33.3125 C 31.285156 -32.882812 32.832031 -32.21875 34.3125 -31.3125 C 35.789062 -30.414062 36.988281 -29.140625 37.90625 -27.484375 C 38.832031 -25.835938 39.296875 -23.921875 39.296875 -21.734375 L 39.296875 0 L 27.90625 0 L 27.90625 -18.65625 C 27.90625 -20.363281 27.359375 -21.859375 26.265625 -23.140625 C 25.171875 -24.429688 23.75 -25.078125 22 -25.078125 C 20.28125 -25.078125 18.722656 -24.410156 17.328125 -23.078125 C 15.929688 -21.753906 15.234375 -20.28125 15.234375 -18.65625 L 15.234375 0 Z M 3.859375 0 "/></g></g></g><g fill="#000000" fill-opacity="1"><g transform="translate(219.691327, 79.425507)"><g><path d="M 14.59375 -33 L 14.59375 -17.296875 C 14.59375 -14.035156 15.085938 -11.71875 16.078125 -10.34375 C 17.066406 -8.976562 18.738281 -8.296875 21.09375 -8.296875 C 23.445312 -8.296875 25.117188 -8.976562 26.109375 -10.34375 C 27.097656 -11.71875 27.59375 -14.035156 27.59375 -17.296875 L 27.59375 -33 L 38.96875 -33 L 38.96875 -14.53125 C 38.96875 -9.039062 37.539062 -5.082031 34.6875 -2.65625 C 31.84375 -0.238281 27.3125 0.96875 21.09375 0.96875 C 14.875 0.96875 10.335938 -0.238281 7.484375 -2.65625 C 4.640625 -5.082031 3.21875 -9.039062 3.21875 -14.53125 L 3.21875 -33 Z M 14.59375 -33 "/></g></g></g><g fill="#000000" fill-opacity="1"><g transform="translate(256.400992, 79.425507)"><g><path d="M 37.8125 -28.875 C 40.90625 -25.488281 42.453125 -21.347656 42.453125 -16.453125 C 42.453125 -11.566406 40.90625 -7.441406 37.8125 -4.078125 C 34.726562 -0.710938 30.804688 0.96875 26.046875 0.96875 C 21.671875 0.96875 18.066406 -0.597656 15.234375 -3.734375 L 15.109375 -3.734375 L 15.109375 0 L 3.859375 0 L 3.859375 -55.3125 L 15.234375 -55.3125 L 15.234375 -29.84375 C 18.066406 -32.582031 21.671875 -33.953125 26.046875 -33.953125 C 30.804688 -33.953125 34.726562 -32.257812 37.8125 -28.875 Z M 28.234375 -10.90625 C 29.648438 -12.34375 30.359375 -14.195312 30.359375 -16.46875 C 30.359375 -18.738281 29.617188 -20.601562 28.140625 -22.0625 C 26.660156 -23.519531 24.828125 -24.25 22.640625 -24.25 C 20.492188 -24.25 18.679688 -23.519531 17.203125 -22.0625 C 15.722656 -20.601562 14.984375 -18.738281 14.984375 -16.46875 C 14.984375 -14.238281 15.703125 -12.394531 17.140625 -10.9375 C 18.578125 -9.476562 20.410156 -8.75 22.640625 -8.75 C 24.953125 -8.75 26.816406 -9.46875 28.234375 -10.90625 Z M 28.234375 -10.90625 "/></g></g></g><g clip-path="url(#aa9056f287)"><g clip-path="url(#befa517a1e)"><g clip-path="url(#aaf8e708c6)"><path fill="#000000" d="M 7.757812 53.378906 C 8.933594 46.234375 12.339844 39.644531 17.488281 34.558594 C 22.636719 29.46875 29.265625 26.140625 36.425781 25.050781 L 38.128906 36.257812 C 33.339844 36.984375 28.902344 39.214844 25.457031 42.621094 C 22.007812 46.027344 19.730469 50.4375 18.941406 55.21875 Z M 7.757812 53.378906 " fill-opacity="1" fill-rule="nonzero"/></g></g></g></svg>