<svg xmlns="http://www.w3.org/2000/svg" xmlns:xlink="http://www.w3.org/1999/xlink" width="247" zoomAndPan="magnify" viewBox="0 0 185.25 163.499993" height="218" preserveAspectRatio="xMidYMid meet" version="1.0"><defs><g/><clipPath id="fa78c76883"><path d="M 9 32 L 50 32 L 50 73 L 9 73 Z M 9 32 " clip-rule="nonzero"/></clipPath><clipPath id="bafd1e46f7"><path d="M 7.546875 69.273438 L 27.953125 23.925781 L 54.945312 36.070312 L 34.539062 81.421875 Z M 7.546875 69.273438 " clip-rule="nonzero"/></clipPath><clipPath id="5dda4d52ad"><path d="M 7.546875 69.273438 L 27.953125 23.925781 L 54.945312 36.070312 L 34.539062 81.421875 Z M 7.546875 69.273438 " clip-rule="nonzero"/></clipPath><clipPath id="4dfa2e9a49"><path d="M 7.546875 69.273438 L 27.953125 23.925781 L 54.945312 36.070312 L 34.539062 81.421875 Z M 7.546875 69.273438 " clip-rule="nonzero"/></clipPath></defs><g fill="#04add7" fill-opacity="1"><g transform="translate(31.206518, 104.528512)"><g><path d="M 48.96875 -19.625 L 17.5 -19.625 C 17.5 -16.570312 18.484375 -14.3125 20.453125 -12.84375 C 22.429688 -11.382812 24.578125 -10.65625 26.890625 -10.65625 C 29.316406 -10.65625 31.234375 -10.976562 32.640625 -11.625 C 34.046875 -12.269531 35.65625 -13.550781 37.46875 -15.46875 L 48.28125 -10.0625 C 43.769531 -2.507812 36.273438 1.265625 25.796875 1.265625 C 19.253906 1.265625 13.640625 -0.972656 8.953125 -5.453125 C 4.273438 -9.929688 1.9375 -15.328125 1.9375 -21.640625 C 1.9375 -27.960938 4.273438 -33.378906 8.953125 -37.890625 C 13.640625 -42.398438 19.253906 -44.65625 25.796875 -44.65625 C 32.671875 -44.65625 38.265625 -42.664062 42.578125 -38.6875 C 46.890625 -34.707031 49.046875 -29.023438 49.046875 -21.640625 C 49.046875 -20.628906 49.019531 -19.957031 48.96875 -19.625 Z M 17.921875 -27.90625 L 34.421875 -27.90625 C 34.078125 -30.15625 33.1875 -31.882812 31.75 -33.09375 C 30.3125 -34.3125 28.46875 -34.921875 26.21875 -34.921875 C 23.738281 -34.921875 21.765625 -34.269531 20.296875 -32.96875 C 18.828125 -31.675781 18.035156 -29.988281 17.921875 -27.90625 Z M 17.921875 -27.90625 "/></g></g></g><g fill="#04add7" fill-opacity="1"><g transform="translate(75.000249, 104.528512)"><g><path d="M 5.078125 0 L 5.078125 -72.71875 L 20.046875 -72.71875 L 20.046875 -38.8125 L 20.203125 -38.8125 C 24.097656 -42.707031 28.242188 -44.65625 32.640625 -44.65625 C 34.785156 -44.65625 36.914062 -44.367188 39.03125 -43.796875 C 41.144531 -43.234375 43.171875 -42.359375 45.109375 -41.171875 C 47.054688 -39.992188 48.632812 -38.316406 49.84375 -36.140625 C 51.0625 -33.972656 51.671875 -31.453125 51.671875 -28.578125 L 51.671875 0 L 36.703125 0 L 36.703125 -24.515625 C 36.703125 -26.773438 35.984375 -28.75 34.546875 -30.4375 C 33.109375 -32.132812 31.234375 -32.984375 28.921875 -32.984375 C 26.660156 -32.984375 24.613281 -32.109375 22.78125 -30.359375 C 20.957031 -28.609375 20.046875 -26.660156 20.046875 -24.515625 L 20.046875 0 Z M 5.078125 0 "/></g></g></g><g clip-path="url(#fa78c76883)"><g clip-path="url(#bafd1e46f7)"><g clip-path="url(#5dda4d52ad)"><g clip-path="url(#4dfa2e9a49)"><path fill="#fbd206" d="M 9.773438 70.277344 C 11.339844 60.835938 15.84375 52.121094 22.632812 45.378906 C 29.421875 38.640625 38.152344 34.21875 47.566406 32.753906 L 49.773438 47.554688 C 43.46875 48.535156 37.628906 51.492188 33.082031 56.003906 C 28.539062 60.515625 25.527344 66.347656 24.476562 72.667969 Z M 9.773438 70.277344 " fill-opacity="1" fill-rule="nonzero"/></g></g></g></g></svg>